<svg xmlns="http://www.w3.org/2000/svg" xmlns:svg="http://www.w3.org/2000/svg" id="svg8" width="3000" height="850" version="1.1" viewBox="0 0 793.75 224.896"><metadata id="metadata5"/><g id="layer1" transform="translate(3.3987692e-7,-49.085399)"><g id="g909" transform="matrix(0.75000002,0,0,0.75000002,10.847915,40.383328)"><path id="path819" d="M 135.46667,29.24165 3.1750025,161.53332 135.46667,293.82498 267.75833,161.53332 Z" style="fill:#5cffda;fill-opacity:1;stroke:#0ff;stroke-width:0;stroke-linecap:butt;stroke-linejoin:miter;stroke-miterlimit:4;stroke-dasharray:none;stroke-opacity:1"/><path id="path819-3" d="M 241.91999,29.24165 216.08177,55.079868 241.91999,80.918083 267.7582,55.079868 Z" style="fill:#5cffda;fill-opacity:1;stroke:#0ff;stroke-width:0;stroke-linecap:butt;stroke-linejoin:miter;stroke-miterlimit:4;stroke-dasharray:none;stroke-opacity:1"/></g><g id="g905" transform="translate(-91.674805,9.9977)"><path id="path4597-3" d="m 356.25814,218.55581 h 92.59978 V 192.09738 H 382.71508 V 86.264147 h -26.45694 z" style="fill:#5cffda;fill-opacity:1;stroke:none;stroke-width:14.32255745px;stroke-linecap:butt;stroke-linejoin:miter;stroke-opacity:1"/><path id="path4597-7-56" d="m 475.32035,86.264147 v 105.833233 26.45843 h 92.60378 V 192.09738 86.264147 H 541.46619 V 192.09738 h -39.6874 V 86.264147 Z" style="fill:#5cffda;fill-opacity:1;stroke:none;stroke-width:14.32287884px;stroke-linecap:butt;stroke-linejoin:miter;stroke-opacity:1"/><path id="path819-36-2" d="m 660.52898,85.984723 -66.14583,66.145837 66.14583,66.14583 66.14583,-66.14583 z m 0,29.383597 37.04166,37.04166 -37.04166,37.04167 -37.04167,-37.04167 z" style="fill:#5cffda;fill-opacity:1;stroke:#0ff;stroke-width:0;stroke-linecap:butt;stroke-linejoin:miter;stroke-miterlimit:4;stroke-dasharray:none;stroke-opacity:1"/><path id="path4597-7-5-9" d="M 753.13314,216.80708 V 110.97386 84.515425 h 92.60377 V 110.97386 216.80708 H 819.27898 V 110.97386 h -39.6874 v 105.83322 z" style="fill:#5cffda;fill-opacity:1;stroke:none;stroke-width:14.32287788px;stroke-linecap:butt;stroke-linejoin:miter;stroke-opacity:1"/></g></g></svg>